<?xml version="1.0" standalone="no"?><!DOCTYPE svg PUBLIC "-//W3C//DTD SVG 1.1//EN" "http://www.w3.org/Graphics/SVG/1.1/DTD/svg11.dtd"><svg t="1560994619971" class="icon" style="" viewBox="0 0 1024 1024" version="1.1" xmlns="http://www.w3.org/2000/svg" p-id="4397" xmlns:xlink="http://www.w3.org/1999/xlink" width="200" height="200"><defs><style type="text/css"></style></defs><path d="M583.29984 920.28032c-59.91168 42.45632-68.68864 101.86752-68.75392 102.16704 0.3328 0.06656-8.04608-59.11424-67.75808-101.4016-174.94528-92.82432-408.8704-258.7968-408.8704-443.31776 0-263.24608 213.37856-476.62592 476.62848-476.62592 263.24864 0 476.62848 213.37984 476.62848 476.62592C991.1744 662.11712 753.19168 857.97504 583.29984 920.28032zM514.54592 137.28256c-37.63456 0-68.0896 30.48832-68.0896 68.08832 0 37.60256 30.45504 68.0896 68.0896 68.0896 37.56928 0 68.08832-30.48704 68.08832-68.0896C582.63552 167.77088 552.1152 137.28256 514.54592 137.28256zM582.63552 409.63968c0-37.6-30.52032-68.0896-68.08832-68.0896-37.63456 0-68.0896 30.4896-68.0896 68.0896l0 340.44928c0 37.60256 30.45504 68.08832 68.0896 68.08832 37.56928 0 68.08832-30.48576 68.08832-68.08832L582.63552 409.63968z" p-id="4398" fill="#d81e06"></path></svg>