<?xml version="1.0" standalone="no"?><!DOCTYPE svg PUBLIC "-//W3C//DTD SVG 1.1//EN" "http://www.w3.org/Graphics/SVG/1.1/DTD/svg11.dtd"><svg t="1560482296706" class="icon" style="" viewBox="0 0 1024 1024" version="1.1" xmlns="http://www.w3.org/2000/svg" p-id="1054" xmlns:xlink="http://www.w3.org/1999/xlink" width="200" height="200"><defs><style type="text/css"></style></defs><path d="M507.546537 1023.846432c5.221301-82.926544 31.327805-148.448752 78.319514-196.515433 70.436373-72.023239 217.656583-211.462687 257.277043-276.780138 39.62046-65.36864 49.244034-160.222273 41.360894-224.669507-7.883141-64.498423-81.595624-320.956439-376.957451-325.768226C212.184711-4.64747 135.04255 248.483246 129.411735 325.881354c-5.630815 77.449297 5.630815 154.591458 56.001012 224.669507 50.319008 70.078049 188.990617 204.756899 255.587798 276.780138 44.432247 48.066682 66.597181 113.5377 66.545992 196.515433z" fill="#F63737" p-id="1055"></path><path d="M335.550743 192.738181c25.338666 20.731636 46.531005 41.463272 64.03772 62.194908l-29.024291 29.02429c-15.2032-19.349527-36.856242-40.541866-64.959126-62.655611l29.945697-28.563587z m-7.371249 112.87224c24.41726 22.574448 45.148896 44.688193 62.194908 66.801938l-28.563587 29.024291c-15.2032-21.192339-36.395539-43.306084-63.577017-67.262642l29.945696-28.563587z m31.327806 126.232628l36.856241 14.281794a1563.933192 1563.933192 0 0 1-56.205768 158.942542l-39.62046-17.046011c22.574448-50.677332 42.384678-102.736774 58.969987-156.178325z m214.226905-224.823075v284.714468H535.035151V244.336919H448.883686v250.161741h-38.699054V207.019974h163.549573z m-49.295223 303.603292c26.720775 23.956557 48.83452 47.452411 67.262641 71.408968l-29.024291 28.563588c-15.2032-23.035151-36.856242-47.913114-64.498423-74.63389l26.260073-25.338666z m-50.21663-239.565572h35.934836V415.718443c-1.382109 52.980848-9.674763 95.365526-25.338666 127.154034-15.2032 29.484993-40.081163 52.059441-74.173187 68.644751l-22.574448-36.395539c32.709915-15.663903 54.82366-35.474133 66.801938-59.43069 11.517576-25.799369 17.967418-58.969987 19.349527-99.972556V271.057694z m193.955972 335.852503h-50.677332l-9.21406-40.541866c15.663903 1.842812 30.867102 2.764218 45.609599 2.764219 9.21406 0 14.281794-5.989139 14.281793-17.046012v-363.955388h41.002569v374.090854c0 29.484993-13.821091 44.688193-41.002569 44.688193zM600.915683 225.908798h38.238351v284.714468h-38.238351V225.908798z" fill="#FFFFFF" p-id="1056"></path></svg>